inDegrees=no
num_controls=7
num_derivatives=13
num_iterations=129
num_multipliers=7
num_parameters=0
num_slacks=7
num_states=26
objective=5.989155
objective_accelerations=0.705285
objective_balance=0.012862
objective_effort=0.507113
objective_height=4.663391
objective_ligament=0.100503
solver_duration=1124.689679
status=Solve_Succeeded
success=true
DataType=double
version=3
OpenSimVersion=4.4-2022-07-23-0e9fedc
endheader
time	/jointset/ground_pelvis/pelvis_tilt/value	/jointset/ground_pelvis/pelvis_tx/value	/jointset/ground_pelvis/pelvis_ty/value	/jointset/hip_r/hip_flexion_r/value	/jointset/hip_r/hip_adduction_r/value	/jointset/hip_r/hip_rotation_r/value	/jointset/back/lumbar_extension/value	/jointset/patellofemoral_r/patellar_flexion_r/value	/jointset/knee_r/knee_flexion_r/value	/jointset/knee_r/knee_adduction_r/value	/jointset/knee_r/knee_rotation_r/value	/jointset/ankle_r/ankle_angle_r/value	/jointset/subtalar_r/subtalar_angle_r/value	/jointset/ground_pelvis/pelvis_tilt/speed	/jointset/ground_pelvis/pelvis_tx/speed	/jointset/ground_pelvis/pelvis_ty/speed	/jointset/hip_r/hip_flexion_r/speed	/jointset/hip_r/hip_adduction_r/speed	/jointset/hip_r/hip_rotation_r/speed	/jointset/back/lumbar_extension/speed	/jointset/patellofemoral_r/patellar_flexion_r/speed	/jointset/knee_r/knee_flexion_r/speed	/jointset/knee_r/knee_adduction_r/speed	/jointset/knee_r/knee_rotation_r/speed	/jointset/ankle_r/ankle_angle_r/speed	/jointset/subtalar_r/subtalar_angle_r/speed	/forceset/tau_hip_flexion_r	/forceset/tau_hip_adduction_r	/forceset/tau_hip_rotation_r	/forceset/tau_knee_flexion_r	/forceset/tau_ankle_angle_r	/forceset/tau_subtalar_angle_r	/forceset/tau_lumbar_extension	lambda_cid13_p0	lambda_cid14_p0	lambda_cid14_p1	lambda_cid14_p2	lambda_cid14_p3	lambda_cid14_p4	lambda_cid14_p5	/jointset/ground_pelvis/pelvis_tilt/accel	/jointset/ground_pelvis/pelvis_tx/accel	/jointset/ground_pelvis/pelvis_ty/accel	/jointset/hip_r/hip_flexion_r/accel	/jointset/hip_r/hip_adduction_r/accel	/jointset/hip_r/hip_rotation_r/accel	/jointset/back/lumbar_extension/accel	/jointset/patellofemoral_r/patellar_flexion_r/accel	/jointset/knee_r/knee_flexion_r/accel	/jointset/knee_r/knee_adduction_r/accel	/jointset/knee_r/knee_rotation_r/accel	/jointset/ankle_r/ankle_angle_r/accel	/jointset/subtalar_r/subtalar_angle_r/accel	gamma_cid13_p0	gamma_cid14_p0	gamma_cid14_p1	gamma_cid14_p2	gamma_cid14_p3	gamma_cid14_p4	gamma_cid14_p5
0	-0.006434219669570411	0.1313139156677147	0.9334240335503349	0.1934208783645156	-0.2277224532253481	-0.2405866484764136	-0.2903791543005566	0.231179331401911	0.2311793314021609	0.1315550083975105	0.172019474609527	0.08934340440958972	0.06442413630517427	0	0	0	0	0	0	0	0	0	0	0	0	0	0.1142819022541849	-0.07496772789896371	0.002587190338517959	-0.2475914227863678	0.1204292536196426	-0.07877577027783131	-0.03514085516151682	-29.89318172377882	-6.847932351986833	-30.29597345885533	-0.5910389873646414	3.296655042081341	-604.594302329437	53.34900907854314	-2.236099275249306	-2.018193490400257	-0.9603991998666502	10.97832417218475	-0.4219450292751407	2.809915267861415	-6.586533646251589	11.07845606194854	11.07845606194855	-1.938103524914225	0.3395272056308002	2.861069476795943	0.2699875476138116	4.086945748403037e-08	1.705414949633839e-08	-3.61312786976384e-07	1.594450995329985e-07	1.555332884484214e-08	1.565609483984857e-07	-2.38137362991058e-07
0.01	-0.006539335229742147	0.131214692595036	0.93337733822889	0.1939548453198225	-0.2277420637460155	-0.2404446814301192	-0.2907104927396556	0.2317223209976499	0.2317223209981183	0.1314581174360309	0.1720313032994872	0.08948419708388911	0.06443879456948745	-0.0209501791119666	-0.01970292977435223	-0.009312697514359718	0.1062610830459597	-0.003915735271815012	0.02827904848262662	-0.06584154597910281	0.1080894850865629	0.1080894850865755	-0.01924528796032214	0.002332326053959177	0.02807994904975	0.002918331723887413	0.1114334987333195	-0.0805412052204925	0.002773991964399118	-0.2469695095118252	0.1196269299856335	-0.07346049293618086	-0.03213244318460752	-29.89894125896849	-6.873451730809834	-27.91164369489846	-1.062972857245807	2.057473993941162	-606.2712237102098	58.25220741300132	-2.013541258395828	-1.925086883516721	-0.9127186994397897	10.37015242924065	-0.3754587924700754	2.8197839420298	-6.519043804490376	10.59792144355029	10.59792144355257	-1.897849715380201	0.1751086114316465	2.769677499638697	0.3007198077678395	6.01552826956867e-08	-2.43913379285208e-09	-5.035635243498695e-07	2.032308320581898e-07	4.565228429174482e-08	3.175249069592575e-09	-3.210219040341871e-07
0.02	-0.006851765386690745	0.1309226913921147	0.9332383131978526	0.1955354535169185	-0.2278006458227054	-0.240023347038256	-0.2916874623847829	0.2333309507866929	0.2333309507867133	0.1311727519397622	0.172065459910439	0.08990343322473816	0.06448222891563786	-0.04146291939369198	-0.03855562604851705	-0.01846594191849654	0.2093282484294833	-0.007794311197325146	0.0558734691080115	-0.1291262411889441	0.2131280386346565	0.2131280386346601	-0.03769490727243004	0.004465584353977943	0.0556886933225079	0.005755216367560884	0.1085850952080652	-0.08611468254096816	0.002960793587324212	-0.2463475962391115	0.118824606351296	-0.06814521559328839	-0.02912403121127425	-29.91567137867321	-6.813067755226444	-25.52919580145469	-1.515274493414128	0.8439616950205981	-606.5862057488056	62.90619010966641	-2.148611509205877	-1.848146790358288	-0.9285085778222939	10.33954063969669	-0.4145131600138174	2.672989696413056	-6.075163492402265	10.46826975425347	10.46826975424914	-1.778969795272004	0.299713654841971	2.766828521402337	0.2536981315728776	7.944110790734304e-08	-2.193241708204255e-08	-6.458142617233549e-07	2.470165645833811e-07	7.575123973864751e-08	-1.502104502593006e-07	-4.039064450773162e-07
0.03	-0.007367530624096074	0.1304461259285133	0.9330081944243178	0.1981316322969714	-0.2278982264760248	-0.2393298824465056	-0.2932836852461312	0.2359749954953131	0.2359749954953899	0.1307079039335116	0.1721205073974099	0.09059591818659478	0.06455299542014024	-0.0616089771886744	-0.05664351877169629	-0.02755862962203201	0.309402786787176	-0.01173886638479088	0.08271686365243562	-0.1896630574479461	0.3151799357150018	0.3151799357149492	-0.05506520296023044	0.006503635923640445	0.08268453931889536	0.008342161344968669	0.1034601743514362	-0.08221086072776512	0.003384277864154576	-0.2424134083313653	0.1147173606428367	-0.06837831198346453	-0.02468851885641548	-29.94249280795447	-8.130186702758055	-25.84661059560357	-1.48116117736193	0.9411570945792047	-606.8900223490488	61.35393889559033	-1.935427561093781	-1.772003044619587	-0.8998020540470507	9.765701395469762	-0.3870263942360556	2.674687982715197	-5.97464965625735	9.998488609602113	9.998488609596542	-1.684714722442479	0.1498647592568522	2.647408843485182	0.2527326043181024	8.139160750165855e-08	-4.064966509174176e-08	-6.740068841675217e-07	2.129997175989933e-07	9.153076907699533e-08	-2.755114034392193e-07	-3.897412452952751e-07
0.04	-0.008082321368534436	0.1297921030314292	0.9326871181362602	0.2017134146531364	-0.2280357726204724	-0.2383710491794569	-0.2954716180627349	0.2396245269596515	0.2396245269596819	0.1300756219165657	0.1721947381704899	0.0915546508493905	0.06464793935911477	-0.08126802084231922	-0.07404711274506307	-0.03665744482306207	0.4064489636114954	-0.01578740941703271	0.1089472041672212	-0.2474682322519492	0.4142253897823802	0.4142253897822998	-0.0711817093243914	0.008302241542345334	0.1089382335044606	0.01059070326215255	0.0983352534951695	-0.07830703891481249	0.003807762141668057	-0.238479220423585	0.1106101149342748	-0.06861140837398821	-0.02025300650113871	-29.97800944247422	-9.369066268556148	-26.16715127375337	-1.427329642613354	1.050640190408593	-605.9605952412705	59.57574297332602	-2.051208680942771	-1.71128704039157	-0.9297340773214154	9.73386833302127	-0.4353107289686714	2.550378890485459	-5.52883520140522	9.866981151658894	9.86698115166026	-1.528211930544719	0.2518244646496557	2.618398159242405	0.1860175195298512	8.29846777018021e-08	-5.935091237402878e-08	-6.998477929018057e-07	1.773786937175009e-07	1.070150525161977e-07	-4.002332896882315e-07	-3.735750199292099e-07
0.05	-0.008991715165518496	0.1289673101798277	0.9322747430086915	0.2062514636592699	-0.2282141974023907	-0.2371536154436731	-0.2982239203558939	0.2442498872764129	0.2442498872766041	0.1292882393610627	0.1722863111128917	0.09277212898429228	0.06476381694300215	-0.100519456344739	-0.09081115506723304	-0.04583634867402336	0.5006749757320568	-0.01987571552273516	0.134421582703813	-0.3025929450353218	0.5103463136409281	0.510346313640782	-0.08614957613451951	0.009956045012421462	0.1344234211690051	0.0125739634121926	0.09272298690292249	-0.07636739970690132	0.004354676232964602	-0.2344461821192637	0.105284708427949	-0.06664260613703407	-0.01563488700959712	-30.02065423569831	-10.89150180669388	-25.5419951892972	-1.568886290559885	1.405610636499374	-605.1801454390272	59.71628916780909	-1.848412160204136	-1.64389591243502	-0.9148647914796234	9.194086748211976	-0.3923712563976671	2.528325130717024	-5.444397122305103	9.409577400235403	9.409577400225306	-1.459383034267131	0.1137565869753033	2.493492605521684	0.2027651400430249	8.353727454511373e-08	-7.061639302723282e-08	-7.0483462109337e-07	1.549404108414456e-07	1.162392053052478e-07	-4.843703360686413e-07	-3.596967154120539e-07
0.06	-0.01009088355242707	0.1279778902881566	0.9317699995921079	0.2117171966058907	-0.2284328613864149	-0.2356849663633937	-0.3015154913379964	0.2498214427112259	0.2498214427112506	0.1283555163419896	0.1723927417496523	0.09424044170293341	0.06489918410384932	-0.1192229388602225	-0.1069725207589985	-0.05513110262600335	0.5919857517182363	-0.02383524982947678	0.159190273059285	-0.355321970039411	0.6034644133907096	0.6034644133904938	-0.100249802065517	0.01127378043396232	0.1591051502520254	0.01448861865436513	0.08711072030907308	-0.07442776049882471	0.004901590323846662	-0.2304131438157699	0.09995930192135558	-0.06467380389994627	-0.01101676751921509	-30.06839216141983	-12.34416290049655	-24.91836903477429	-1.694495490077434	1.761620184859406	-603.308149184148	59.66613536912681	-1.941618083559607	-1.590751714306601	-0.9529040975253359	9.150821106144214	-0.4095563691762234	2.409241254261697	-5.049697645551191	9.266416329904384	9.266416329904965	-1.354683754719094	0.1846108549417063	2.457706442941879	0.172296537958001	8.404606198392718e-08	-8.156878876973863e-08	-7.089433827357669e-07	1.330571907445668e-07	1.251997736458704e-07	-5.667985470861627e-07	-3.459147444043255e-07
0.07000000000000001	-0.01137498883424989	0.1268299710966631	0.931171461592918	0.2180822670991175	-0.2286908292322837	-0.2339725387273007	-0.3053216142137042	0.2563097071055826	0.2563097071056427	0.1272869020091447	0.172511333512366	0.0959517118863777	0.06505296726162527	-0.1375101694837024	-0.1224985070326847	-0.06461132868522919	0.6805339623193694	-0.02774749321758504	0.1831740633505137	-0.4054915713198995	0.6936924637480205	0.6936924637479176	-0.1132888449496123	0.01239587439965021	0.1830235173865909	0.01624565099367881	0.08126717939418231	-0.07197245844901932	0.005461377135596107	-0.2272391974333424	0.09580295777056594	-0.06308784103410245	-0.006230632615658593	-30.11907831753307	-13.4568443756065	-24.42928684724723	-1.766895998465065	1.786632723350979	-601.7276763614515	59.33007502557829	-1.759074049501947	-1.516575348457801	-0.9509209403893754	8.632661593976648	-0.3804939807516342	2.374814726811931	-4.938936309319109	8.826582311104639	8.826582311122085	-1.250978976473748	0.0687395013468266	2.34010507966429	0.173958569764639	7.349940939468672e-08	-9.295307471712318e-08	-6.432088542246929e-07	6.197976852462957e-08	1.265141892238651e-07	-6.267364745104256e-07	-2.735007341112e-07
0.08	-0.01283932612172073	0.1255301813895338	0.9304770535170784	0.2253179878098183	-0.2289876066435234	-0.2320238998262384	-0.3096171020901987	0.2636853685879376	0.2636853685879629	0.1260934043630499	0.1726396923817065	0.09789840638736672	0.06522363114036192	-0.1552693400181107	-0.1373466238861725	-0.07430511795590246	0.7661157951957613	-0.03159716289056473	0.2064325260521002	-0.4531949702018593	0.7809438310036846	0.7809438310037115	-0.1252264646824788	0.01322720172382947	0.2061900137591956	0.01786476284688884	0.07542363847909028	-0.06951715639920747	0.006021163948144324	-0.2240652510511485	0.09164661361967101	-0.06150187816829085	-0.001444497712201778	-30.17025383226199	-14.50867762536356	-23.94178197529737	-1.825072948835635	1.803157966563992	-599.2015452117294	58.83573908823252	-1.836006065749166	-1.45517783026303	-0.9956167398149823	8.557545561195319	-0.3970416261502316	2.264175736333578	-4.556457165847942	8.671079709573812	8.67107970957786	-1.134399124473721	0.1264575266390199	2.307332290553814	0.1447124407388174	6.223950261008793e-08	-1.043652245486934e-07	-5.7296830699404e-07	-1.227147318711774e-08	1.273353046236258e-07	-6.852234158964136e-07	-1.973040116061134e-07
